<svg id="visual" viewBox="0 0 900 600" width="900" height="600" xmlns="http://www.w3.org/2000/svg" xmlns:xlink="http://www.w3.org/1999/xlink" version="1.1"><rect x="0" y="0" width="900" height="600" fill="#f5f5f5"></rect><defs><linearGradient id="grad1_0" x1="33.3%" y1="0%" x2="100%" y2="100%"><stop offset="20%" stop-color="#f5f5f5" stop-opacity="1"></stop><stop offset="80%" stop-color="#f5f5f5" stop-opacity="1"></stop></linearGradient></defs><defs><linearGradient id="grad2_0" x1="0%" y1="0%" x2="66.7%" y2="100%"><stop offset="20%" stop-color="#f5f5f5" stop-opacity="1"></stop><stop offset="80%" stop-color="#f5f5f5" stop-opacity="1"></stop></linearGradient></defs><g transform="translate(900, 0)"><path d="M0 486.7C-44.6 431.9 -89.3 377.1 -148.9 359.4C-208.5 341.7 -283.1 361 -338 338C-392.9 315 -428.2 249.7 -449.7 186.3C-471.2 122.9 -479 61.4 -486.7 0L0 0Z" fill="#075985"></path></g><g transform="translate(0, 600)"><path d="M0 -486.7C46.9 -440.1 93.7 -393.5 156.1 -376.9C218.6 -360.4 296.6 -373.8 344.2 -344.2C391.8 -314.5 409.1 -241.7 427.8 -177.2C446.5 -112.6 466.6 -56.3 486.7 0L0 0Z" fill="#075985"></path></g></svg>