<svg id="visual" viewBox="0 0 900 600" width="900" height="600" xmlns="http://www.w3.org/2000/svg" xmlns:xlink="http://www.w3.org/1999/xlink" version="1.1"><rect x="0" y="0" width="900" height="600" fill="#E7E8D8"></rect><defs><linearGradient id="grad1_0" x1="33.3%" y1="0%" x2="100%" y2="100%"><stop offset="20%" stop-color="#e7e8d8" stop-opacity="1"></stop><stop offset="80%" stop-color="#e7e8d8" stop-opacity="1"></stop></linearGradient></defs><defs><linearGradient id="grad2_0" x1="0%" y1="0%" x2="66.7%" y2="100%"><stop offset="20%" stop-color="#e7e8d8" stop-opacity="1"></stop><stop offset="80%" stop-color="#e7e8d8" stop-opacity="1"></stop></linearGradient></defs><g transform="translate(900, 0)"><path d="M0 297.5C-23.5 285.7 -47.1 273.9 -71.7 267.6C-96.3 261.2 -122 260.4 -144.5 250.3C-167 240.2 -186.2 220.8 -200.1 200.1C-214 179.4 -222.6 157.5 -238.2 137.5C-253.7 117.5 -276.3 99.6 -287.3 77C-298.4 54.4 -297.9 27.2 -297.5 0L0 0Z" fill="#075985"></path></g><g transform="translate(0, 600)"><path d="M0 -297.5C26.6 -292.1 53.2 -286.8 73 -272.4C92.8 -258 105.8 -234.5 130.5 -226C155.2 -217.6 191.4 -224.1 210.3 -210.3C229.3 -196.6 230.9 -162.5 235.6 -136C240.3 -109.5 248 -90.8 258.9 -69.4C269.7 -48 283.6 -24 297.5 0L0 0Z" fill="#075985"></path></g></svg>